<?xml version="1.0" standalone="no"?>
<!DOCTYPE svg PUBLIC "-//W3C//DTD SVG 20010904//EN"
 "http://www.w3.org/TR/2001/REC-SVG-20010904/DTD/svg10.dtd">
<svg version="1.0" xmlns="http://www.w3.org/2000/svg"
 width="700.000000pt" height="700.000000pt" viewBox="0 0 700.000000 700.000000"
 preserveAspectRatio="xMidYMid meet">
<metadata>
Created by potrace 1.11, written by Peter Selinger 2001-2013
</metadata>
<g transform="translate(0.000000,700.000000) scale(0.100000,-0.100000)"
fill="#000000" stroke="none">
<path d="M3249 6977 c-149 -50 -261 -185 -278 -336 -4 -31 -6 -443 -5 -916 2
-919 0 -885 52 -982 28 -53 108 -134 160 -161 77 -40 133 -50 288 -51 81 -1
150 -3 152 -6 2 -2 5 -47 7 -101 3 -94 5 -100 31 -121 15 -12 31 -20 36 -17 9
6 9 4 13 -48 l3 -38 -67 -1 c-115 -1 -177 -15 -265 -62 -100 -53 -160 -124
-231 -272 -34 -71 -70 -148 -80 -170 -60 -137 -86 -181 -122 -205 l-37 -25
-413 -3 -413 -3 -23 25 c-12 13 -35 43 -50 66 -38 56 -80 72 -194 73 -128 0
-164 -16 -217 -100 -14 -23 -34 -47 -44 -52 -10 -5 -63 -11 -117 -12 -156 -3
-250 -30 -355 -100 -84 -57 -200 -191 -200 -231 0 -8 -4 -18 -9 -23 -6 -6 -18
-37 -27 -70 -16 -55 -17 -163 -19 -1280 -1 -671 2 -1240 6 -1265 14 -82 18
-94 53 -165 79 -157 204 -260 376 -306 61 -17 191 -18 2260 -16 l2195 2 63 24
c82 30 132 59 197 113 94 77 174 217 193 338 9 59 9 2471 -1 2505 -2 11 -10
40 -17 65 -37 138 -160 281 -300 348 -47 22 -110 45 -140 51 -30 5 -160 10
-289 11 -246 1 -272 5 -319 50 -13 12 -33 45 -46 73 -149 333 -190 408 -249
468 -59 59 -143 109 -217 129 -54 15 -75 18 -160 19 l-66 1 1 41 c1 36 5 43
32 54 17 7 34 19 39 26 4 8 9 56 10 107 2 52 4 95 6 97 2 2 71 5 152 6 202 2
277 24 368 111 55 52 89 105 114 178 18 52 19 100 19 945 0 845 -1 893 -19
945 -36 104 -109 192 -201 241 -90 48 -91 49 -853 48 -712 0 -718 -1 -783 -22z
m1541 -163 c52 -24 102 -72 127 -123 16 -33 18 -70 18 -397 l0 -362 -39 -56
c-29 -42 -51 -62 -95 -83 l-56 -28 -705 0 c-786 0 -759 -2 -832 69 -72 70 -73
74 -76 436 -2 212 0 342 7 375 21 93 102 169 198 184 21 4 346 6 723 6 668 -1
686 -2 730 -21z m-684 -2533 c5 -1 11 -19 11 -41 l1 -40 -84 0 -84 0 0 35 c0
19 6 37 15 42 11 7 75 8 141 4z m44 -1246 c14 -2 45 -7 70 -10 83 -11 200 -48
310 -97 288 -130 542 -402 656 -705 60 -158 79 -271 78 -458 0 -162 -9 -224
-46 -350 -48 -162 -150 -355 -243 -460 -217 -247 -464 -388 -769 -441 -97 -17
-278 -22 -361 -10 -27 4 -62 9 -76 11 -14 2 -53 11 -85 19 -482 125 -838 498
-940 986 -20 92 -26 352 -11 445 9 57 43 194 56 227 10 24 23 59 26 68 4 13
68 139 86 170 12 19 45 67 74 105 227 301 544 473 935 508 43 4 206 -1 240 -8z
m-1582 -161 c38 -8 107 -65 128 -107 9 -17 17 -57 17 -91 3 -242 -348 -278
-401 -41 -12 53 6 122 43 170 46 61 125 86 213 69z"/>
<path d="M3889 2796 c-2 -2 -26 -6 -54 -10 -256 -31 -537 -208 -687 -433 -130
-194 -183 -373 -180 -604 6 -480 361 -900 835 -990 76 -15 260 -20 318 -9 24
5 58 10 74 13 171 26 398 149 527 283 73 77 88 94 135 167 136 207 190 462
153 716 -17 123 -82 294 -148 392 -9 14 -27 41 -39 60 -61 92 -222 231 -345
298 -54 29 -258 105 -258 96 0 -2 -15 1 -32 6 -31 9 -291 22 -299 15z"/>
</g>
</svg>
